<svg width="61" height="81" viewBox="0 0 61 81" fill="none" xmlns="http://www.w3.org/2000/svg">
<path d="M30.2655 0.123779C13.6145 0.123779 0.064209 13.7681 0.064209 30.5432C0.064209 54.3787 27.4266 78.9894 28.591 80.023C29.0709 80.4492 29.6682 80.6606 30.2655 80.6606C30.8628 80.6606 31.4601 80.4492 31.94 80.0263C33.1044 78.9894 60.4668 54.3787 60.4668 30.5432C60.4668 13.7681 46.9165 0.123779 30.2655 0.123779ZM30.2655 47.1036C21.0138 47.1036 13.487 39.5767 13.487 30.3251C13.487 21.0734 21.0138 13.5466 30.2655 13.5466C39.5172 13.5466 47.044 21.0734 47.044 30.3251C47.044 39.5767 39.5172 47.1036 30.2655 47.1036Z" fill="white"/>
</svg>
