<svg width="79" height="63" viewBox="0 0 79 63" fill="none" xmlns="http://www.w3.org/2000/svg">
<path d="M71.3361 62.0355C73.0894 62.0355 74.6086 61.4566 75.9001 60.3134L53.8015 38.214C53.2713 38.5936 52.7574 38.9628 52.2719 39.3139C50.6182 40.5323 49.2759 41.4831 48.2453 42.1644C47.2148 42.8473 45.8437 43.5433 44.1321 44.2539C42.4194 44.9654 40.8239 45.32 39.3437 45.32H39.3004H39.2571C37.7768 45.32 36.1812 44.9655 34.4687 44.2539C32.7562 43.5433 31.3851 42.8473 30.3555 42.1644C29.325 41.4831 27.9835 40.5325 26.3289 39.3139C25.8678 38.9758 25.3564 38.605 24.8036 38.208L2.70068 60.3134C3.99206 61.4566 5.51228 62.0355 7.26545 62.0355H71.3361Z" fill="white"/>
<path d="M4.69746 24.2978C3.04383 23.1953 1.57743 21.9327 0.300781 20.5105V54.1331L19.7784 34.6554C15.8818 31.935 10.8612 28.4865 4.69746 24.2978Z" fill="white"/>
<path d="M73.9483 24.2978C68.0197 28.3106 62.9808 31.7651 58.8311 34.6632L78.3009 54.1339V20.5105C77.0526 21.9041 75.6019 23.1659 73.9483 24.2978Z" fill="white"/>
<path d="M71.3361 0.749512H7.2656C5.03037 0.749512 3.31189 1.50431 2.10804 3.01235C0.90319 4.5211 0.301758 6.40796 0.301758 8.6708C0.301758 10.4986 1.09989 12.4791 2.69545 14.6128C4.29101 16.7456 5.98881 18.4209 7.78801 19.6395C8.77435 20.3364 11.7488 22.4042 16.7114 25.8423C19.3903 27.6987 21.7199 29.3168 23.7219 30.7131C25.4284 31.9021 26.9 32.9317 28.1151 33.7862C28.2546 33.8841 28.4739 34.041 28.7651 34.2492C29.0788 34.4745 29.4757 34.7604 29.9654 35.114C30.9084 35.796 31.6918 36.3473 32.3158 36.7685C32.9389 37.1898 33.6938 37.6604 34.5794 38.1829C35.4644 38.7048 36.2991 39.0972 37.0825 39.3582C37.866 39.619 38.5914 39.7499 39.2586 39.7499H39.302H39.3453C40.0124 39.7499 40.7379 39.619 41.5216 39.3582C42.3049 39.0972 43.1388 38.7056 44.0245 38.1829C44.9093 37.6604 45.6632 37.1888 46.2883 36.7685C46.9123 36.3473 47.6957 35.7962 48.6388 35.114C49.1275 34.7604 49.5245 34.4743 49.8382 34.2499C50.1295 34.0409 50.3487 33.8849 50.489 33.7862C51.4356 33.1276 52.9106 32.1022 54.8938 30.7251C58.5023 28.2179 63.8168 24.5276 70.8595 19.6395C72.9777 18.16 74.7473 16.3747 76.1695 14.2861C77.5892 12.1974 78.3009 10.0065 78.3009 7.71406C78.3009 5.79874 77.6108 4.15985 76.2336 2.79484C74.8549 1.43152 73.2222 0.749512 71.3361 0.749512Z" fill="white"/>
</svg>
