<svg width="73" height="73" viewBox="0 0 73 73" fill="none" xmlns="http://www.w3.org/2000/svg">
<path d="M70.699 56.101C69.7253 55.0137 66.7311 52.3029 64.5872 50.688C62.4826 49.0337 59.0352 46.7958 57.6925 46.1027C55.4994 44.962 52.1952 45.0897 50.1425 46.4689C48.4555 47.6428 46.8931 48.9865 45.48 50.4789L45.4492 50.5112C44.6774 51.3266 43.6409 51.8413 42.5248 51.9634C41.4086 52.0855 40.2854 51.807 39.3556 51.1776C35.8593 48.7935 32.5962 46.0843 29.6098 43.0861C26.6116 40.0996 23.9023 36.8365 21.5182 33.3403C20.8888 32.4104 20.6104 31.2872 20.7324 30.1711C20.8545 29.0549 21.3692 28.0185 22.1847 27.2467L22.2169 27.2158C23.7093 25.8027 25.053 24.2404 26.2269 22.5534C27.6062 20.5007 27.7339 17.1964 26.5932 15.0034C25.9 13.662 23.6621 10.2189 22.0079 8.10864C20.3915 5.96473 17.6822 2.97055 16.5948 1.99681C14.8199 0.397299 11.8215 -0.019416 9.72951 1.11989C7.97227 2.11787 6.3261 3.29983 4.81873 4.64583L4.66018 4.78614C-4.58893 12.743 1.50044 34.9524 19.6353 53.0522C37.7449 71.1898 59.9486 77.2834 67.9055 68.0343L68.0458 67.8757C69.3923 66.3687 70.5743 64.7225 71.5717 62.9649C72.7153 60.8743 72.2985 57.8759 70.699 56.101Z" fill="white"/>
</svg>
